# xmcd CD database file
#
# Track frame offsets:
#	150
#	9841
#	35955
#	55161
#	76729
#	96524
#	125662
#	135106
#	153916
#	172755
#	191200
#	208366
#
# Disc length: 3055 seconds
#
# Revision: 0
# Processed by: cddbd v1.5.1PL2 Copyright (c) Steve Scherf et al.
# Submitted via: CDex 1.51
#
DISCID=9b0bed0c
DTITLE=Qlair - Archives [CD3]
DYEAR=2005
DGENRE=JPop
TTITLE0=Sanctuary
TTITLE1=リボンのないプレゼント
TTITLE2=うたたねのソファー
TTITLE3=スノーブーツのWish
TTITLE4=夢みるヴァイオリン
TTITLE5=暖かな森
TTITLE6=Sanctuary〜The light of three stars〜
TTITLE7=HAPPY BIRTHDAY
TTITLE8=恋のメダリスト(1993Version)
TTITLE9=SUMMER LOVER 大作戦
TTITLE10=瞳いっぱいの夏 Radioactivity (瞳いっぱいの夏?白いパラソルメドレー)
TTITLE11=永遠の少年 <2005 Miracle Recording>
EXTD=YEAR: 2005
EXTT0=
EXTT1=
EXTT2=
EXTT3=
EXTT4=
EXTT5=
EXTT6=
EXTT7=
EXTT8=
EXTT9=
EXTT10=
EXTT11=
PLAYORDER=
